<svg xmlns="http://www.w3.org/2000/svg" xmlns:xlink="http://www.w3.org/1999/xlink" viewBox="0 0 512 512" width="512" height="512" style="width: 100%; height: 100%; transform: translate3d(0,0,0);" preserveAspectRatio="xMidYMid meet"><defs><clipPath id="__lottie_element_2"><rect width="512" height="512" x="0" y="0"></rect></clipPath></defs><g clip-path="url(#__lottie_element_2)"><g style="display: block;" transform="matrix(1.333299994468689,0,0,1.333299994468689,0,0)" opacity="1"><g opacity="1" transform="matrix(1,0,0,1,0,0)"><g opacity="1" transform="matrix(1,0,0,1,0,0)"><path fill="rgb(255,255,255)" fill-opacity="1" d=" M77.16000366210938,177.49000549316406 C144.91000366210938,148.02999877929688 190.0800018310547,128.61000061035156 212.69000244140625,119.22000122070312 C277.2300109863281,92.43000030517578 290.6400146484375,87.77999877929688 299.3800048828125,87.62000274658203 C301.29998779296875,87.58999633789062 305.6000061035156,88.06999969482422 308.3800048828125,90.31999969482422 C310.7300109863281,92.2300033569336 311.3800048828125,94.80000305175781 311.69000244140625,96.5999984741211 C312,98.4000015258789 312.3800048828125,102.5199966430664 312.0799865722656,105.7300033569336 C308.5799865722656,142.41000366210938 293.45001220703125,231.4199981689453 285.75,272.5 C282.489990234375,289.8800048828125 276.0799865722656,295.7099914550781 269.8699951171875,296.2799987792969 C256.3699951171875,297.5199890136719 246.1199951171875,287.3699951171875 233.0500030517578,278.82000732421875 C212.60000610351562,265.44000244140625 201.0399932861328,257.1099853515625 181.19000244140625,244.0500030517578 C158.24000549316406,228.9600067138672 173.1199951171875,220.66000366210938 186.1999969482422,207.11000061035156 C189.6199951171875,203.55999755859375 249.0800018310547,149.57000732421875 250.22999572753906,144.67999267578125 C250.3699951171875,144.07000732421875 250.50999450683594,141.7899932861328 249.14999389648438,140.5800018310547 C247.7899932861328,139.3699951171875 245.7899932861328,139.7899932861328 244.33999633789062,140.1199951171875 C242.2899932861328,140.5800018310547 209.61000061035156,162.13999938964844 146.30999755859375,204.7899932861328 C137.02999877929688,211.14999389648438 128.63999938964844,214.22999572753906 121.11000061035156,214.07000732421875 C112.80999755859375,213.88999938964844 96.8499984741211,209.38999938964844 84.9800033569336,205.5399932861328 C70.43000030517578,200.82000732421875 58.869998931884766,198.32000732421875 59.869998931884766,190.3000030517578 C60.400001525878906,186.1199951171875 66.16000366210938,181.85000610351562 77.16000366210938,177.49000549316406 C77.16000366210938,177.49000549316406 77.16000366210938,177.49000549316406 77.16000366210938,177.49000549316406z"></path></g></g></g></g></svg>