<svg xmlns="http://www.w3.org/2000/svg" viewBox="0 0 384 384" width="384" height="384"><path fill="#000000" d="M77.16,177.49 C144.91,148.03 190.08,128.61 212.69,119.22 C277.23,92.43 290.64,87.78 299.38,87.62 C301.30,87.59 305.60,88.07 308.38,90.32 C310.73,92.23 311.38,94.80 311.69,96.60 C312.00,98.40 312.38,102.52 312.08,105.73 C308.58,142.41 293.45,231.42 285.75,272.50 C282.49,289.88 276.08,295.71 269.87,296.28 C256.37,297.52 246.12,287.37 233.05,278.82 C212.60,265.44 201.04,257.11 181.19,244.05 C158.24,228.96 173.12,220.66 186.20,207.11 C189.62,203.56 249.08,149.57 250.23,144.68 C250.37,144.07 250.51,141.79 249.15,140.58 C247.79,139.37 245.79,139.79 244.34,140.12 C242.29,140.58 209.61,162.14 146.31,204.79 C137.03,211.15 128.64,214.23 121.11,214.07 C112.81,213.89 96.85,209.39 84.98,205.54 C70.43,200.82 58.87,198.32 59.87,190.30 C60.40,186.12 66.16,181.85 77.16,177.49z" /></svg>